<svg width="1896" height="396.987" xmlns="http://www.w3.org/2000/svg"><defs><linearGradient id="a" x1="133.535" y1="273.331" x2="346.502" y2="299.48" gradientUnits="userSpaceOnUse" gradientTransform="translate(0 -.007)"><stop offset=".035" stop-color="#d2ff00"/><stop offset=".128" stop-color="#bdeb07"/><stop offset=".319" stop-color="#87b61a"/><stop offset=".59" stop-color="#326338"/><stop offset=".709" stop-color="#0a3c46"/></linearGradient><linearGradient id="b" x1="47.931" y1="66.565" x2="47.931" y2="428.085" gradientUnits="userSpaceOnUse" gradientTransform="translate(0 -.007)"><stop offset=".116" stop-color="#0a3c46"/><stop offset=".308" stop-color="#447432"/><stop offset=".579" stop-color="#90be17"/><stop offset=".774" stop-color="#c0ed06"/><stop offset=".87" stop-color="#d2ff00"/></linearGradient><linearGradient id="c" x1="-116.154" y1="63.798" x2="566.074" y2="259.424" gradientUnits="userSpaceOnUse" gradientTransform="translate(0 -.007)"><stop offset=".072" stop-color="#0a3c46"/><stop offset=".099" stop-color="#27593c"/><stop offset=".152" stop-color="#5b8b2a"/><stop offset=".203" stop-color="#86b51b"/><stop offset=".253" stop-color="#a7d50f"/><stop offset=".301" stop-color="#bfec07"/><stop offset=".345" stop-color="#cdfa02"/><stop offset=".382" stop-color="#d2ff00"/><stop offset=".425" stop-color="#cdfa02"/><stop offset=".479" stop-color="#bdea07"/><stop offset=".54" stop-color="#a3d111"/><stop offset=".605" stop-color="#7fae1d"/><stop offset=".673" stop-color="#50802e"/><stop offset=".744" stop-color="#184a41"/><stop offset=".76" stop-color="#0a3c46"/></linearGradient></defs><path d="M658.899 99.247H508V297.74h49.2V143.297h102.381c19.441 0 36.52 14.283 38.497 33.6a37.04 37.04 0 0 1-36.83 40.85h-55.307v44.05h55.308a81.165 81.165 0 0 0 81.087-83.678c-1.419-44.29-39.073-78.872-83.437-78.872Z"/><path d="M776.711 99.246V297.74h142.776l20.594-39.947h-114.17V99.246z"/><path d="m1209.624 297.74-102.33-198.494h-52.54L952.424 297.74h53.445l75.155-152.448 75.156 152.448z"/><path d="M1290.713 99.246V297.74h-49.2V99.246h24.6z"/><path d="M1587.784 142.595q-15.972-23.034-47.175-35.316c-20.792-8.188-46.409-12.286-77.143-12.286s-56.351 4.098-77.143 12.286q-31.2 12.288-47.175 35.316c-10.662 15.356-15.982 33.787-15.982 55.899 0 22.111 5.32 40.542 15.982 55.898q15.971 23.034 47.175 35.316c20.792 8.188 46.409 12.285 77.143 12.285s56.351-4.097 77.143-12.285q31.2-12.288 47.174-35.316c10.663-15.356 15.983-33.787 15.983-55.899 0-22.111-5.32-40.542-15.983-55.898zm-46.56 91.526q-11.21 13.817-31.5 20.424c-13.528 4.398-28.843 6.603-46.258 6.603-17.416 0-32.73-2.205-46.26-6.603q-20.281-6.607-31.499-20.424c-7.481-9.216-11.218-20.886-11.218-35.628 0-14.74 3.737-26.412 11.218-35.627q11.21-13.817 31.5-20.425c13.528-4.397 28.843-6.602 46.258-6.602 17.416 0 32.73 2.205 46.26 6.602q20.281 6.608 31.5 20.425c7.48 9.215 11.217 20.886 11.217 35.627 0 14.742-3.737 26.412-11.218 35.628z"/><path d="M1685.485 99.246h-49.2V297.74h49.2V160.384L1846.8 297.74h49.2V99.246h-49.2v139.025z"/><path d="m243.13 198.494-77.269 44.61a40 40 0 0 0-20 34.641v85.616l119.356-70.533a47.956 47.956 0 0 0-1.076-82.587q-.212-.122-.425-.241l-20.266-11.703Z" fill="url(#a)" style="fill:url(#a)"/><path d="M95.861 113.213 72.04 99.463A47.95 47.95 0 0 0 0 140.593v186.288c0 50.484 51.14 83.128 95.861 65.086z" fill="url(#b)" style="fill:url(#b)"/><path d="M322.872 138.23 105.612 9.843C58.95-17.733 0 15.905 0 70.107v70.742a47.95 47.95 0 0 1 72.04-41.13l23.821 13.75 147.26 85.02 20.274 11.7.425.241a47.956 47.956 0 0 1 1.076 82.587l57.976-34.26c45.85-27.093 45.85-93.432 0-120.527z" fill="url(#c)" style="fill:url(#c)"/></svg>